<?xml version="1.0" encoding="UTF-8"?>
<svg width="28px" height="30px" viewBox="0 0 28 30" version="1.1" xmlns="http://www.w3.org/2000/svg" xmlns:xlink="http://www.w3.org/1999/xlink">
    <!-- Generator: Sketch 50 (54983) - http://www.bohemiancoding.com/sketch -->
    <title>Group 3</title>
    <desc>Created with Sketch.</desc>
    <defs></defs>
    <g id="Page-1" stroke="none" stroke-width="1" fill="none" fill-rule="evenodd">
        <g id="Desktop-HD" transform="translate(-743.000000, -20.000000)" fill="#FFFFFF" fill-rule="nonzero">
            <g id="Group-3" transform="translate(743.000000, 20.000000)">
                <path d="M21.5658122,3.4272196 C16.1825777,1.56920961 14.8596317,7.73143785 14.8596317,7.73143785 C16.3726831,7.73002781 26.9486792,5.28501808 21.5658122,3.4272196 Z" id="Shape"></path>
                <path d="M14.3449529,7.24712731 L15.8500649,0.701227126 L12.8181544,0.22731261 L11.9123231,6.88093986 C12.7419946,7.2329564 13.9351895,7.45750531 14.3449529,7.24712731 Z" id="Shape"></path>
                <path d="M26.6221074,13.2539122 C25.1037629,9.53479013 22.9773162,7.99037309 20.8974034,7.52146422 C18.7283924,8.40196383 14.5208566,9.25221808 14.0006763,9.01385078 C13.8054984,8.8884982 13.2221701,8.53041849 12.3918369,8.17875446 C9.68434078,7.03105223 4.35800556,5.95399301 1.37792196,13.2539122 C-1.65031287,20.6733323 4.89774047,27.221418 11.0237538,29.0928939 L11.0182403,29.1299075 C11.8889322,29.5065292 12.9062097,29.6612106 14.0000147,29.6211655 C15.0939666,29.6612106 16.1108031,29.5065292 16.9817891,29.1299075 L16.9762021,29.0928939 C23.1029505,27.221418 29.6501217,20.6733323 26.6221074,13.2539122 Z" id="Shape"></path>
            </g>
        </g>
    </g>
</svg>