<?xml version="1.0" encoding="UTF-8"?>
<svg width="18px" height="30px" viewBox="0 0 18 30" version="1.1" xmlns="http://www.w3.org/2000/svg" xmlns:xlink="http://www.w3.org/1999/xlink">
    <!-- Generator: Sketch 50 (54983) - http://www.bohemiancoding.com/sketch -->
    <title>Group</title>
    <desc>Created with Sketch.</desc>
    <defs></defs>
    <g id="Page-1" stroke="none" stroke-width="1" fill="none" fill-rule="evenodd">
        <g id="Desktop-HD" transform="translate(-387.000000, -17.000000)" fill="#FFFFFF" fill-rule="nonzero">
            <g id="Group" transform="translate(387.000000, 17.000000)">
                <path d="M2.96947445,28.2638526 C2.96947445,29.2036421 3.47794161,29.9659579 4.10472263,29.9659579 L13.6585182,29.9659579 C14.2858248,29.9659579 14.793635,29.2036421 14.793635,28.2638526 L15.653562,19.6737474 L2.94188321,27.9682737 L2.96947445,28.2638526 Z" id="Shape"></path>
                <polygon id="Shape" points="2.78625547 26.2920632 15.8441387 17.7708 16.1818029 14.3918526 2.5089635 23.3148"></polygon>
                <polygon id="Shape" points="2.33356204 21.4345895 16.3953066 12.2577474 16.5575036 10.6396421 1.32858394 10.6396421"></polygon>
                <path d="M16.6751606,7.22911579 L14.0474234,7.22911579 L14.0474234,5.06905263 L17.9653139,1.30231579 L16.6646496,0.0517894737 L12.2210803,4.32385263 L12.2080073,4.32385263 L12.2080073,7.22911579 L0.843043796,7.22911579 C0.407693431,7.22911579 0.0547226277,7.65606316 0.0547226277,8.18261053 L0.0547226277,8.73884211 C0.0547226277,9.26538947 0.407693431,9.69233684 0.843043796,9.69233684 L16.6751606,9.69233684 C17.1105109,9.69233684 17.4634818,9.26538947 17.4634818,8.73884211 L17.4634818,8.18261053 C17.4634818,7.65606316 17.1105109,7.22911579 16.6751606,7.22911579 Z" id="Shape"></path>
            </g>
        </g>
    </g>
</svg>