<?xml version="1.0" encoding="UTF-8"?>
<svg width="34px" height="30px" viewBox="0 0 34 30" version="1.1" xmlns="http://www.w3.org/2000/svg" xmlns:xlink="http://www.w3.org/1999/xlink">
    <!-- Generator: Sketch 50 (54983) - http://www.bohemiancoding.com/sketch -->
    <title>Group 2</title>
    <desc>Created with Sketch.</desc>
    <defs></defs>
    <g id="Page-1" stroke="none" stroke-width="1" fill="none" fill-rule="evenodd">
        <g id="Desktop-HD" transform="translate(-26.000000, -19.000000)" fill="#FFFFFF" fill-rule="nonzero">
            <g id="Group-2" transform="translate(26.043478, 19.000000)">
                <path d="M2.32990375,24.1090502 C2.32990375,27.3618686 4.20814658,30 6.52143084,30 L27.1327344,30 C29.4458668,30 31.3242615,27.3619458 31.3242615,24.1090502 L31.3242615,22.9565217 L2.32990375,22.9565217 L2.32990375,24.1090502 Z" id="Shape"></path>
                <path d="M30.585189,14.6086957 L3.32793083,14.6086957 C1.48996894,14.6086957 0,16.1271332 0,18.0001168 C0,19.8730225 1.49004532,21.3913043 3.32793083,21.3913043 L30.585189,21.3913043 C32.4230745,21.3913043 33.9130435,19.8729446 33.9130435,18.0001168 C33.9130435,16.1270554 32.4229982,14.6086957 30.585189,14.6086957 Z" id="Shape"></path>
                <path d="M17.0859227,0 C9.49240089,0 3.2272555,5.69371912 2.32990375,13.0434783 L31.8420179,13.0434783 C30.9435987,5.69371912 24.6793683,0 17.0859227,0 Z M11.3911816,5.76743779 C10.6919198,5.76743779 10.1250228,5.20063498 10.1250228,4.50232782 C10.1250228,3.80318207 10.6919198,3.23729407 11.3911816,3.23729407 C12.0896048,3.23729407 12.6564255,3.80310584 12.6564255,4.50232782 C12.6565017,5.20063498 12.0896048,5.76743779 11.3911816,5.76743779 Z M17.2707456,3.55359063 C16.5714075,3.55359063 16.0045868,2.98678781 16.0045868,2.28764207 C16.0045868,1.58933491 16.5714837,1.0225321 17.2707456,1.0225321 C17.9690163,1.0225321 18.5360657,1.58933491 18.5360657,2.28764207 C18.5359895,2.98678781 17.9690163,3.55359063 17.2707456,3.55359063 Z M22.938724,5.76743779 C22.327375,5.76743779 21.8316165,5.27168545 21.8316165,4.66051421 C21.8316165,4.04926674 22.327375,3.55351439 22.938724,3.55351439 C23.5509117,3.55351439 24.0467464,4.04926674 24.0467464,4.66051421 C24.0467464,5.27168545 23.5509117,5.76743779 22.938724,5.76743779 Z" id="Shape"></path>
            </g>
        </g>
    </g>
</svg>