<?xml version="1.0" encoding="UTF-8"?>
<svg width="28px" height="25px" viewBox="0 0 28 25" version="1.1" xmlns="http://www.w3.org/2000/svg" xmlns:xlink="http://www.w3.org/1999/xlink">
    <!-- Generator: Sketch 50 (54983) - http://www.bohemiancoding.com/sketch -->
    <title>Group 7</title>
    <desc>Created with Sketch.</desc>
    <defs></defs>
    <g id="Page-1" stroke="none" stroke-width="1" fill="none" fill-rule="evenodd">
        <g id="Group-7">
            <rect id="Rectangle-5" fill="#F3F3F3" x="0" y="0" width="28" height="25"></rect>
            <g id="ic-attach-money-18px" transform="translate(0.000000, 1.000000)">
                <path d="M15.1230769,9.43125 C13.4189349,8.825625 12.2899408,8.588125 12.2899408,7.19875 C12.2899408,6.213125 13.0568047,5.275 14.5266272,5.275 C16.2201183,5.275 16.7633136,6.32 16.7633136,7.57875 L18.7869822,7.57875 C18.7869822,5.453125 17.5408284,3.909375 15.591716,3.49375 L15.591716,1 L13.4615385,1 L13.4615385,3.505625 C11.7786982,3.885625 10.2662722,5.1325 10.2662722,7.210625 C10.2662722,9.8825 12.1621302,10.535625 14.5266272,11.390625 C16.5289941,12.115 16.9230769,12.625625 16.9230769,13.8725 C16.9230769,14.94125 16.2094675,15.725 14.5266272,15.725 C13.2485207,15.725 12.1301775,14.7275 12.1301775,13.27875 L10,13.27875 C10,15.51125 11.4698225,17.07875 13.4615385,17.50625 L13.4615385,20 L15.591716,20 L15.591716,17.541875 C17.764497,17.1975 19,15.7725 19,13.860625 C19,11.64 17.9988166,10.4525 15.1230769,9.43125 Z" id="Shape" fill="#000000" fill-rule="nonzero"></path>
                <polygon id="Shape" points="0 0 28 0 28 21 0 21"></polygon>
            </g>
        </g>
    </g>
</svg>