<?xml version="1.0" encoding="UTF-8"?>
<svg width="27px" height="19px" viewBox="0 0 27 19" version="1.1" xmlns="http://www.w3.org/2000/svg" xmlns:xlink="http://www.w3.org/1999/xlink">
    <!-- Generator: Sketch 50 (54983) - http://www.bohemiancoding.com/sketch -->
    <title>ic-person-add-24px</title>
    <desc>Created with Sketch.</desc>
    <defs></defs>
    <g id="Page-1" stroke="none" stroke-width="1" fill="none" fill-rule="evenodd">
        <g id="ic-person-add-24px" transform="translate(-1.000000, -5.000000)">
            <polygon id="Shape" points="0 0 29 0 29 29 0 29"></polygon>
            <path d="M18.1818182,14.5 C20.8940909,14.5 23.0909091,12.374375 23.0909091,9.75 C23.0909091,7.125625 20.8940909,5 18.1818182,5 C15.4695455,5 13.2727273,7.125625 13.2727273,9.75 C13.2727273,12.374375 15.4695455,14.5 18.1818182,14.5 Z M7.13636364,12.125 L7.13636364,8.5625 L4.68181818,8.5625 L4.68181818,12.125 L1,12.125 L1,14.5 L4.68181818,14.5 L4.68181818,18.0625 L7.13636364,18.0625 L7.13636364,14.5 L10.8181818,14.5 L10.8181818,12.125 L7.13636364,12.125 Z M18.1818182,16.875 C14.905,16.875 8.36363636,18.46625 8.36363636,21.625 L8.36363636,24 L28,24 L28,21.625 C28,18.46625 21.4586364,16.875 18.1818182,16.875 Z" id="Shape" fill="#000000" fill-rule="nonzero"></path>
        </g>
    </g>
</svg>